<?xml version="1.0" encoding="utf-8"?>
<!-- Generator: Adobe Illustrator 25.4.1, SVG Export Plug-In . SVG Version: 6.00 Build 0)  -->
<svg version="1.1" id="Calque_1" xmlns="http://www.w3.org/2000/svg" xmlns:xlink="http://www.w3.org/1999/xlink" x="0px" y="0px"
	 viewBox="0 0 134.4 158.4" style="enable-background:new 0 0 134.4 158.4;" xml:space="preserve">
<style type="text/css">
	.st0{fill:url(#SVGID_1_);}
	.st1{fill:none;stroke:#76777E;}
	.st2{fill:url(#SVGID_00000118365454114901603710000000164071020761746058_);}
	.st3{fill:url(#SVGID_00000051346779222586186150000009553252452436449456_);}
	.st4{fill:url(#SVGID_00000051352043053918442850000007318073385551781023_);}
	.st5{fill:url(#SVGID_00000135660803932343064460000010277919745661630600_);}
	.st6{fill:url(#SVGID_00000118370014768180096210000013659675703027368834_);}
	.st7{fill:url(#SVGID_00000005971774251476999700000016380736844173362585_);}
	.st8{fill:url(#SVGID_00000080928165116922217030000005323317759477968554_);}
	.st9{fill:url(#SVGID_00000108995718677183985400000015073983612437707175_);}
	.st10{fill:url(#SVGID_00000046332812405428280960000013901088049801629317_);}
	.st11{fill:url(#SVGID_00000091737790016158276160000009876810192929541053_);}
	.st12{fill:url(#SVGID_00000084493679413597255910000006358844307118333056_);}
	.st13{fill:url(#SVGID_00000042705655356523541060000014137103704611562630_);}
	.st14{fill:url(#SVGID_00000055688136801801880920000013074746329637114032_);}
	.st15{fill:url(#SVGID_00000135688243570952287760000013933470615644466861_);}
</style>
<g>
	
		<linearGradient id="SVGID_1_" gradientUnits="userSpaceOnUse" x1="104.7197" y1="137.1496" x2="108.6149" y2="137.1496" gradientTransform="matrix(1 0 0 -1 0 157)">
		<stop  offset="0" style="stop-color:#9A2C52"/>
		<stop  offset="0.1675" style="stop-color:#A32858"/>
		<stop  offset="0.4401" style="stop-color:#BB1E6A"/>
		<stop  offset="0.7817" style="stop-color:#E20D86"/>
		<stop  offset="1" style="stop-color:#444444"/>
	</linearGradient>
	<path class="st0" d="M107.6,26.8c0,0,2.4-11.8,0-13.5s-2.4,3.6-2.4,3.6l-0.5,8C104.8,24.9,107.6,26.4,107.6,26.8z"/>
	<path class="st1" d="M94.5,118.6c0,0,13.7-3.3,18.8,9.9c4.9,12.5,3.1,26.6,3.1,26.6"/>
	<path class="st1" d="M87.2,132.5c0,0,7.1,9,7.2,9.6c0.1,0.6,2,9.3,0.7,10.2c-1.3,0.9-8.9,2.5-8.9,2.5"/>
	<path class="st1" d="M54.6,171.6C54.6,165,53,159,53,159"/>
	<path class="st1" d="M55.6,145.5c0,0,4.3,20,4.5,26.1"/>
	<path class="st1" d="M41.8,124.1c-3.7,0.5-11.6,1.1-15.2,4.3c-3.1,2.9-6.1,5.3-7.1,5.6c-1.1,0.4-6.3,6.3-6.8,8.8
		c-0.5,2.5-3.6,26.6-3.3,28.7"/>
	<path class="st1" d="M84.2,128.1c0,0,2.4-5.6,2.7-8.6c0.4-2.9,3.7-10.7,4.9-12.2c1.2-1.4,8.2-1.6,8.2-1.6s3.9-0.2,7.4-2
		c3.4-1.8,2-7.9,2.1-9.4s1.5-3.5,2.1-4.7c0.5-1.1-0.5-2.9-0.1-3.2c0.4-0.2,1.4-2.2,1.4-2.2c-0.1-0.5,2.3-6.3,2.3-6.3s3.2-0.6,4-2.5
		c0.7-1.9,0.2-3.6-1.7-6.1c-1.9-2.5-3.6-6.5-3.6-6.5s-0.7-1.1-0.5-1.8c0.1-0.2,0.4-0.7,0.7-1.5c0.4-0.8,0.9-2.1,0.9-2.4
		c0-0.2,0.7-1.4,1.3-3.2c0.6-1.8,0.1-5.2-0.6-6.2c-0.6-1.1-1.7-6.5-3.7-12.9s-6.5-9.9-6.5-9.9"/>
	<path class="st1" d="M96.3,106c0,0-4.5,1.8-12-1.4"/>
	<g>
		
			<linearGradient id="SVGID_00000174596820167726695600000002584873689952757414_" gradientUnits="userSpaceOnUse" x1="88.6526" y1="17.2302" x2="88.7339" y2="17.2302" gradientTransform="matrix(1 0 0 -1 0 157)">
			<stop  offset="0" style="stop-color:#EF3F7C"/>
			<stop  offset="1" style="stop-color:#444444"/>
		</linearGradient>
		<path style="fill:url(#SVGID_00000174596820167726695600000002584873689952757414_);" d="M88.6,139.7L88.6,139.7
			c0,0,0,0.1,0.1,0.1C88.7,139.8,88.7,139.7,88.6,139.7z"/>
		
			<linearGradient id="SVGID_00000159451400023904457280000007333134433290460298_" gradientUnits="userSpaceOnUse" x1="22.7494" y1="56.3328" x2="108.2324" y2="56.3328" gradientTransform="matrix(1 0 0 -1 0 157)">
			<stop  offset="0" style="stop-color:#EF3F7C"/>
			<stop  offset="1" style="stop-color:#444444"/>
		</linearGradient>
		<path style="fill:url(#SVGID_00000159451400023904457280000007333134433290460298_);" d="M78.4,71.8c1.1-1.2,2.7-2.1,4-3.1
			c2-1.6,3.7-3.6,5.3-5.6c0.8-1.1,2.7-2.5,3.9-3.2c3.2-2.1,4.2-5.2,5.7-8.5c3.9-8.5,8.8-26.6,8.8-26.6s2.7-9.6,1.7-12.3
			c-1.1-2.7-2.5-4-5.6-2.7s-5.9,2.7-9.5,0.1c-3.6-2.5-3.7-2.9-9.6-1.9c-5.9,1.1-6.3,1.1-8.1,0.8c-1.8-0.2-6.6,0.2-8.4,0.7
			c-1.8,0.5-4.4-0.1-6.2,0.5c-1.8,0.6-13.3,4.2-18.3,11.3S28,46.1,28,51.2c0,3.4-3,15.4-3.4,28.3c0,6.3-2.3,15.7-1.8,24.2
			c0,0-0.1,4.5-0.1,7.1c0.1-2.4,0.7-9.3,1.5-14.8c0,1.9,0,4,0.2,6.7c0,0,1.1-5.2,1.8-8.1c0.1,0.7,0.1,1.3,0.2,2
			c-0.1,3.5,0.1,8.9,2,14.8c3.4,10.5,6.8,16.6,6.8,16.6s-4.4-10-6.4-20.1c3.3,11.6,8,17.7,8,17.7s14,9.5,18.2,20.1
			c0.9,2.4,2.3,5.5,3.8,9.3c0.5,1.1,0.4,1.2,0.8,2.4c0.6,1.5,1.3,5.8,1.5,7.8l0.5-3.4c0.1,0.9-0.1,5.9-0.1,7.2c0,0,0.8-4.6,0.8-6
			c0.4,0.9-0.2,2.9,0.2,3.9c1.7,3.9,6.3,5.1,7.6,6.5c3,3.2,7.4,5.8,9.7,7.1c1.9,1.1,5.2,0.6,8.2,2c4.5,2.1,8.5,6,8.5,6
			c-1.1-1.1-2.3-2.2-3.3-3.4c-0.6-0.7-1.3-1.3-1.8-2.1c0-0.1-0.1-0.2-0.2-0.4c0-0.4,0.6,0,0.7,0c0.8,0.4,1.7,0.7,2.5,1.1
			c0.6,0.4,0.9,1.2,1.3,1.8c0.7,1.2,1.5,2.5,2.3,3.8c-0.9-1.9-2.4-5.1-3.7-7.3c-0.2-1.5-2.4-4.2-2.4-4.2l3.9,4.9
			c1.4,2.4,3.4,6.1,4.2,8.3c-0.2-1.2-0.6-2.7-0.9-4.2l5.9,7.3c0,0-10.2-24.9-14.4-29.5c1.2,1.3,5.2,5.3,6.8,7.9c0,0-2.8-5.3-4-6.2
			c0,0,3,2.5,4.2,4.2c-0.7-1.3-3.2-5.2-5.1-7.1c1.1,0.9,3,2.7,4.6,4.5c-4.7-5.4-12.6-14.3-14.1-16.6c-2.4-3.3-6.3-11-6.9-14.6
			s-1.8-7.6-1.8-7.6L70,116.3l2.6,4.7l-1.5-5.6c0,0,7.5,12.6,8.9,15.3c0,0,0-2.5-0.4-3.8c-0.4-1.3,8.5,11.8,9.1,12.9
			c-0.2-0.4-0.6-1.1-0.6-1.1l-0.9-3.1l3.1,3.1c0,0-13.7-26.7-14.7-32.4c-1.1-5.6-5.5-18.9-5.5-20.3s-0.5-2.4,1.8-6.8
			C74,74.7,77.8,72.6,78.4,71.8z M90.6,164.3c-0.1-0.1-0.2-0.2-0.4-0.4C90.3,164,90.4,164.2,90.6,164.3z"/>
		
			<linearGradient id="SVGID_00000139265177163293501650000001198453085108818602_" gradientUnits="userSpaceOnUse" x1="97.5926" y1="-13.3225" x2="97.834" y2="-13.3225" gradientTransform="matrix(1 0 0 -1 0 157)">
			<stop  offset="0" style="stop-color:#EF3F7C"/>
			<stop  offset="1" style="stop-color:#444444"/>
		</linearGradient>
		<path style="fill:url(#SVGID_00000139265177163293501650000001198453085108818602_);" d="M97.6,170.1c0.1,0.1,0.1,0.2,0.2,0.4
			C97.9,170.5,97.8,170.4,97.6,170.1z"/>
		
			<linearGradient id="SVGID_00000121242599062511460990000011482233184857124997_" gradientUnits="userSpaceOnUse" x1="97.1466" y1="-12.6762" x2="100.8944" y2="-12.6762" gradientTransform="matrix(1 0 0 -1 0 157)">
			<stop  offset="0" style="stop-color:#EF3F7C"/>
			<stop  offset="1" style="stop-color:#444444"/>
		</linearGradient>
		<path style="fill:url(#SVGID_00000121242599062511460990000011482233184857124997_);" d="M97.2,167.6c2.1,2.5,3.8,4.2,3.8,4.2
			C100.2,170.7,98.7,169.1,97.2,167.6z"/>
		
			<linearGradient id="SVGID_00000174597833492836562220000009661641315746894763_" gradientUnits="userSpaceOnUse" x1="22.6898" y1="45.2358" x2="22.7938" y2="45.2358" gradientTransform="matrix(1 0 0 -1 0 157)">
			<stop  offset="0" style="stop-color:#EF3F7C"/>
			<stop  offset="1" style="stop-color:#444444"/>
		</linearGradient>
		<path style="fill:url(#SVGID_00000174597833492836562220000009661641315746894763_);" d="M22.7,112.4c0-0.2,0-0.8,0-1.6
			c0,0.5-0.1,0.8-0.1,0.8S22.8,113.4,22.7,112.4z"/>
		
			<linearGradient id="SVGID_00000011009730938631727380000008117705611380139411_" gradientUnits="userSpaceOnUse" x1="98.0713" y1="-32.7704" x2="98.821" y2="-32.7704" gradientTransform="matrix(1 0 0 -1 0 157)">
			<stop  offset="0" style="stop-color:#EF3F7C"/>
			<stop  offset="1" style="stop-color:#444444"/>
		</linearGradient>
		<path style="fill:url(#SVGID_00000011009730938631727380000008117705611380139411_);" d="M98.1,189.1c0.5,0.9,0.7,1.4,0.7,1.4
			C98.6,190.1,98.3,189.7,98.1,189.1z"/>
		
			<linearGradient id="SVGID_00000014610820925856710010000001899574720824857501_" gradientUnits="userSpaceOnUse" x1="100.1481" y1="-34.533" x2="100.4515" y2="-34.533" gradientTransform="matrix(1 0 0 -1 0 157)">
			<stop  offset="0" style="stop-color:#EF3F7C"/>
			<stop  offset="1" style="stop-color:#444444"/>
		</linearGradient>
		<path style="fill:url(#SVGID_00000014610820925856710010000001899574720824857501_);" d="M100.1,190.8c0.2,0.8,0.4,1.4,0.4,1.4
			C100.5,191.9,100.4,191.4,100.1,190.8z"/>
	</g>
	<g>
		
			<linearGradient id="SVGID_00000047753091879039047120000011626510205789366430_" gradientUnits="userSpaceOnUse" x1="84.4569" y1="154.2823" x2="134.4468" y2="154.2823">
			<stop  offset="0" style="stop-color:#EF3F7C"/>
			<stop  offset="1" style="stop-color:#444444"/>
		</linearGradient>
		<path style="fill:url(#SVGID_00000047753091879039047120000011626510205789366430_);" d="M132.1,178.6
			c-0.2-1.1-7.6-14.4-10.2-17.7c-2-2.6-7.3-10.1-10.3-16.9c-3.1-6.8-13.7-16.9-13.9-17c-0.2-0.1,0.4-2.8,0.4-2.8
			c0.8-1.9,1.8-18.1,1.8-18.1l-0.9-0.2l-6.8,0.8l-3.9,8l-3.7,12.7l2.7,5.5l4.5,5.6l2.4,3.2c0.2,0.9,0.2,4.1,1.4,6.2
			c4.7,8.9,16.1,23.9,16.1,23.9l-9.1-15.4l8.9,13.3l-8.2-13.7c0,0-0.2-1.2,2.7,4.1c1.9,3.5,4.5,6.8,6.9,10c0.6,0.8,1.2,1.5,1.8,2.2
			c0.5,0.6,1.1,1.3,1.6,2h0c0,0,3.4,5.9,4.9,9c-0.7-1.7-1.9-4.4-3-6.5c0.4,0.5,0.8,1.1,1.3,1.6c0.6,1.3,1.2,2.8,1.3,3.3
			c0,0-0.1-1-0.4-2.2c0,0,0.1,0.1,0.1,0.1c0.3,0.7,0.6,1.6,0.9,2.6c-0.2-0.6-0.3-1.4-0.5-2c0.1,0.1,0.2,0.2,0.2,0.3
			c0.1,0.2,0.3,0.4,0.4,0.5c0.4,1.3,0.8,3.2,1,4.2c0,0,0.1-1.1,0.1-2.2c0.8,3.1,2.3,9,2.3,10.3c0,0,0.3-0.3-1.3-8.8
			c0.6,1.8,1.3,4.5,1.7,6.8c0,0-0.1-2.3-0.5-4.7c0,0.1,0.1,0.2,0.1,0.3c0.1,0.5,0.4,0.9,0.6,1.4c0.1,0.2,0.2,0.4,0.2,0.6
			c0,0.1,0.1,0.1,0.1,0.2c0.2,1.1,0.3,3,0.3,6c0,0,0.2-2.7,0.3-4.6c0.2,1.6,0.6,4.6,0.6,6.3c0-1.1,0.1-3,0.1-4.6c0,0,0,0.1,0,0.1
			c0.3,2.3,0.8,6.2,0.7,7.7c0,0,0.2-2.7,0.3-5.1c0,0.1,0.1,0.2,0.1,0.4c1.2,4,0.9,3.6,2.1,7.5c-0.8-3.5-1.4-6.6-2.2-9.3
			c0-0.4,0-0.8,0-1.1c0.7,2.5,1.6,5.6,2.3,7.8c-0.3-1.8-0.8-4.3-1.1-6.3c0.2,0.7,0.3,1.4,0.4,1.8c0,0,0.1-0.9,0.2-2
			c0.1,1.2,0.1,2.4,0.1,2.4l0.2-4.2h0.2c0,0.1,0,0.2,0,0.4c0,0.1,0,2.2-0.1,3.5c0.1-0.6,0.2-1.4,0.4-2.1c0,0.9,0,2-0.1,3.1
			c0.2-1.2,0.4-2.8,0.6-4.2c0.1,0.6,0.3,1.4,0.3,2l0.1-1.5c0,0.1,0,0.1,0,0.2c0-0.4,0.1-0.9,0.1-1.3h0.1c0,0.6,0,1.2,0,1.6
			c0,0,0,0,0,0c0,0.1,0,0.3,0,0.4c0,0.2-0.1,0.3-0.1,0.3c0.1,0,0.1-0.1,0.1-0.2c-0.1,0.8-0.2,1.6-0.3,2.2c0.1-0.4,0.3-0.9,0.5-1.4
			c0,0.1,0,0.1,0,0.1c0.1-0.1,0.1-0.2,0.1-0.4c0.1-0.4,0.2-0.7,0.3-1.1c0,0.6-0.1,1.2-0.2,1.5c0.2-0.7,0.6-2,0.7-2.9h0.2
			c0,0.2-0.1,0.4-0.1,0.7c0,0.1-0.1,0.3-0.1,0.4c0,0.6-0.3,1.2-0.4,1.7c-0.2,0.4-0.3,0.8-0.5,1.2c-0.3,0.8-0.6,1.4-0.8,2.1
			c0,0.1-0.1,0.3-0.1,0.4c0,0,1.9-2.2,3.1-8.4C134.6,187.8,133.2,181.3,132.1,178.6z M95.9,118.8c0.8-3.6,1.8-6.1,1.8-6.1
			s0.1,10.3-1.8,12.1C95.9,124.9,95.1,122.4,95.9,118.8z"/>
		
			<linearGradient id="SVGID_00000073711704271825209240000017533172708509288340_" gradientUnits="userSpaceOnUse" x1="131.5822" y1="194.9363" x2="131.6714" y2="194.9363">
			<stop  offset="0" style="stop-color:#EF3F7C"/>
			<stop  offset="1" style="stop-color:#444444"/>
		</linearGradient>
		<path style="fill:url(#SVGID_00000073711704271825209240000017533172708509288340_);" d="M131.7,194.5l-0.1,0.9
			C131.7,195.2,131.7,194.8,131.7,194.5z"/>
		
			<linearGradient id="SVGID_00000108279107860491786890000008364226450458635152_" gradientUnits="userSpaceOnUse" x1="131.3815" y1="196.6183" x2="131.6809" y2="196.6183">
			<stop  offset="0" style="stop-color:#EF3F7C"/>
			<stop  offset="1" style="stop-color:#444444"/>
		</linearGradient>
		<path style="fill:url(#SVGID_00000108279107860491786890000008364226450458635152_);" d="M131.7,196.2c-0.2,0.5-0.3,0.7-0.3,0.7
			C131.5,196.8,131.6,196.5,131.7,196.2z"/>
		
			<linearGradient id="SVGID_00000053542698219400975580000011912543658615994521_" gradientUnits="userSpaceOnUse" x1="127.0845" y1="197.0853" x2="127.1282" y2="197.0853">
			<stop  offset="0" style="stop-color:#EF3F7C"/>
			<stop  offset="1" style="stop-color:#444444"/>
		</linearGradient>
		<path style="fill:url(#SVGID_00000053542698219400975580000011912543658615994521_);" d="M127.1,196.6c0,0.6,0,0.9,0,0.9
			C127.1,197.3,127.1,197,127.1,196.6z"/>
		
			<linearGradient id="SVGID_00000160160054561373285360000010009787696419882164_" gradientUnits="userSpaceOnUse" x1="121.1161" y1="183.9677" x2="121.7424" y2="183.9677">
			<stop  offset="0" style="stop-color:#EF3F7C"/>
			<stop  offset="1" style="stop-color:#444444"/>
		</linearGradient>
		<path style="fill:url(#SVGID_00000160160054561373285360000010009787696419882164_);" d="M121.1,183.2c0.4,0.9,0.6,1.5,0.6,1.5
			C121.7,184.4,121.4,183.9,121.1,183.2z"/>
		
			<linearGradient id="SVGID_00000110461369710235965260000008825221751660740797_" gradientUnits="userSpaceOnUse" x1="121.3594" y1="182.8472" x2="121.7424" y2="182.8472">
			<stop  offset="0" style="stop-color:#EF3F7C"/>
			<stop  offset="1" style="stop-color:#444444"/>
		</linearGradient>
		<path style="fill:url(#SVGID_00000110461369710235965260000008825221751660740797_);" d="M121.4,182.1c0.2,0.9,0.4,1.5,0.4,1.5
			C121.6,183.1,121.5,182.6,121.4,182.1z"/>
	</g>
	
		<linearGradient id="SVGID_00000015345698484138914400000011947854254195136923_" gradientUnits="userSpaceOnUse" x1="120.227" y1="187.3627" x2="120.227" y2="187.3627">
		<stop  offset="0" style="stop-color:#EF3F7C"/>
		<stop  offset="1" style="stop-color:#444444"/>
	</linearGradient>
	<path style="fill:url(#SVGID_00000015345698484138914400000011947854254195136923_);" d="M120.2,187.4"/>
</g>
</svg>
