<svg xmlns="http://www.w3.org/2000/svg" xmlns:xlink="http://www.w3.org/1999/xlink" width="157" height="190" viewBox="0 0 157 190">
  <defs>
    <clipPath id="clip-path">
      <rect id="Rectangle_657" data-name="Rectangle 657" width="157" height="190" transform="translate(-10841.563 -626.268)" fill="#fff" stroke="#707070" stroke-width="1"/>
    </clipPath>
    <linearGradient id="linear-gradient" y1="0.501" x2="0.999" y2="0.501" gradientUnits="objectBoundingBox">
      <stop offset="0" stop-color="#4663ff"/>
      <stop offset="0.919" stop-color="#17a8d3"/>
    </linearGradient>
  </defs>
  <g id="Groupe_de_masques_29" data-name="Groupe de masques 29" transform="translate(10841.563 626.268)" clip-path="url(#clip-path)">
    <g id="caricature-jean_baptiste" transform="translate(-10877.015 -623.982)">
      <path id="Tracé_1690" data-name="Tracé 1690" d="M157.465,62.115l1.888-3.221s3.887-2.332,4.776-6.109.333-13.106-3.332-16.327c-2.11-2-2.777-1.888-2.777-1.888s-1.333-5-3.665-5.553-2.11,0-2.11,0-3.887-6.886-7-8.108c-1.888-1.111-3.332.444-4,.666a4.288,4.288,0,0,1-1.222.222s-.666-3-2.443-3a6.047,6.047,0,0,0-3,.777,19.74,19.74,0,0,0-3,.889c-.444.444-3.554-3.221-5.664-3.443s-5,1.555-5,1.555-3.11-.777-4.443-.444a48.409,48.409,0,0,0-5.331,1.777s-2.777-3.11-4.776-3.11a6.593,6.593,0,0,0-4.665,2.11c-.666,1-4.109,2.443-7,3.443-1.777.555-4.109,0-5.442.111-1.333.222-1.555.777-2.666.777s-4.443.333-5.664,2.11-1.555,3.776-2.443,3.887c-.889.222-5.664,4.776-5.553,7.886,0,0-1.555,2.555-2.332,3.887s-.666,4.887-.666,4.887S68.28,49.342,68.5,51.675c.333,2.332-1.777,5.553-1.777,5.553s-1.111,4.332-.777,5-.555,3.332-.444,4c.222.666.889,4.776,1.111,5.553S65.5,75.554,65.5,77.331c-.111,1.888-.111,6.775,2.888,9.441,0,0,.444-7,1-8.108s1.888-3.887,4.109-4.332c2.11-.444,5.664,3.443,6.331,4.109.777.666,2,4.443,3.11,4.443s8.663,2.888,10.44.666c1.777-2.11,3.11-3.221,2.888-4.443-.111-1.222-.333-10.44.889-12s4-5.775,6-6.553c0,0-4.109-12.106-3.332-15.327s1.666-4,2-5,5.442-5.775,10-6.553c4.443-.777,13.217,1.777,16.438,3.443s14.327,8.885,26.1,12.106l6.109,23.546a5.2,5.2,0,0,0,1.444,2.666c.666.444,1.107,1.976.441,4.42" transform="translate(11.576 -16.8)" fill="none" stroke="#76777e" stroke-width="0.9"/>
      <path id="Tracé_1680" data-name="Tracé 1680" d="M85.869,100.109s-2.443.333-4.332.444a2.2,2.2,0,0,1-1.111-.222c-1.888-.666-4.554-2.777-7.108-4.665-3-2.332-4.887-10.773-5.109-12a54.282,54.282,0,0,1,0-6.109c-.333-3.11,2-7.886,4.443-8.663" transform="translate(11.868 -11.035)" fill="none" stroke="#76777e" stroke-width="0.9"/>
      <path id="Tracé_1681" data-name="Tracé 1681" d="M80.163,97.2s2.11,11.107-.111,18.437S70.5,132.519,70.5,132.519" transform="translate(12.133 -7.903)" fill="none" stroke="#76777e" stroke-width="0.9"/>
      <path id="Tracé_1682" data-name="Tracé 1682" d="M77.688,121.3s-3.887-.111-4.22.444c-.333.444-1.888,2-3.221,1.555a4.026,4.026,0,0,0-3.443.889c-.111.222-10,11.551-9,15.438.111,3.887.111,4.22.889,6s8.108,14.994,9.552,14.661a5.018,5.018,0,0,1,4.332,1.111c1,.889,13.661,8.663,17.215,8.33,3.554-.222,8.33-1,8.33-1.666s8.663,5.331,12.106,3.554" transform="translate(10.72 -5.238)" fill="none" stroke="#76777e" stroke-width="0.9"/>
      <path id="Tracé_1683" data-name="Tracé 1683" d="M67.8,124.3s19.992,31.765,29.654,39.428c9.663,7.775,9.885,4.776,11.662,7.219,1.777,2.332,4.443,11.329,6.775,12.328s6.553,8.219,7.108,11.44" transform="translate(11.834 -4.905)" fill="none" stroke="#76777e" stroke-width="0.9"/>
      <path id="Tracé_1684" data-name="Tracé 1684" d="M118.509,144s5.886,6.775,6.109,12a48.334,48.334,0,0,1-1.555,12s-4.776-1.666-8.663,15.882v1.111" transform="translate(16.99 -2.725)" fill="none" stroke="#76777e" stroke-width="0.9"/>
      <path id="Tracé_1685" data-name="Tracé 1685" d="M119.8,136.6s7.886,8.33,12.328,9,19.881,12.995,19.992,17.882a37.576,37.576,0,0,1,.889,16.1c-1.555,8.219-2.332,15.771-2.332,15.771" transform="translate(17.588 -3.544)" fill="none" stroke="#76777e" stroke-width="0.9"/>
      <path id="Tracé_1686" data-name="Tracé 1686" d="M139.5,172.6s11.329,21.325,11.773,31.876" transform="translate(19.768 0.44)" fill="none" stroke="#76777e" stroke-width="0.9"/>
      <path id="Tracé_1687" data-name="Tracé 1687" d="M64.627,136.1S30.641,149.095,5.541,176.861c0,0-3.887,2.332-9.441,17.77" transform="translate(3.9 -3.599)" fill="none" stroke="#76777e" stroke-width="0.9"/>
      <path id="Tracé_1688" data-name="Tracé 1688" d="M153.894,91.9a15.988,15.988,0,0,1-1.333,7.886c-2.555,5.442-5.331,11.107-6,13.328A43.031,43.031,0,0,1,141.677,123c-1.666,2.11-3.443,7.775-3.776,8.441-.333.777-.333,4.109-8.774,4.887-8.441.666-7.441,1.333-8,2.888-.333.777-1,5.442-2.443,11.218A79.763,79.763,0,0,1,112.8,166.98" transform="translate(16.813 -8.49)" fill="none" stroke="#76777e" stroke-width="0.9"/>
      <g id="Groupe_2907" data-name="Groupe 2907" transform="translate(107.4 56.072)">
        <path id="Tracé_1689" data-name="Tracé 1689" d="M160.661,74.077c-6.22-1.111-11.107.333-12.661,0-1.555-.444-3.887-.666-5.109-1.555a36.621,36.621,0,0,0-21.436-5.109c-11,1-25.989,2.888-27.988,2.555L92.8,72.188l10.662-.555s6.331-.333,7.552.222a3.1,3.1,0,0,1,2.11,3.11c-.222,1.444,0,8.774,0,8.774s.444,3.221,2.555,4c0,0,11.107,4.22,16.66,3.443s6.22-2.332,7-3.332,4-8.441,5.553-8.663A1.716,1.716,0,0,1,147,80.629a31.967,31.967,0,0,0,2.666,9.329c2,4.22,2,3.554,2.221,3.776.333.555,6.109,2,7.663,1.555s3.11.555,5.109-2.443,3.221-10,4.109-10.329,1.111-3.221,1.111-3.221A15.213,15.213,0,0,0,160.661,74.077ZM142,76.853c0,.444-2.555,14.105-11.884,12.773-9.218-1.333-11.107-2.332-13.328-3.554s-1.222-12.217-1-14.439,4.443-2.666,4.443-2.666c10.551-.889,16.1,2.11,19.436,3.665C143.113,74.188,142,76.409,142,76.853Zm24.212,6.22c-1,5.109-3.887,10.107-4.665,10.551s-8.108,1-10.218-1.888S150,83.073,150.11,79.3c0-3.776,3.11-3.776,3.11-3.776a15.244,15.244,0,0,1,10.551,1.555C164.215,77.186,167.325,77.964,166.214,83.073Z" transform="translate(-92.8 -67.286)" fill="url(#linear-gradient)"/>
      </g>
    </g>
  </g>
</svg>
