<?xml version="1.0" encoding="utf-8"?>
<!-- Generator: Adobe Illustrator 27.2.0, SVG Export Plug-In . SVG Version: 6.00 Build 0)  -->
<svg version="1.1" id="Calque_1" xmlns="http://www.w3.org/2000/svg" xmlns:xlink="http://www.w3.org/1999/xlink" x="0px" y="0px"
	 viewBox="0 0 159 186" style="enable-background:new 0 0 159 186;" xml:space="preserve">
<style type="text/css">
	.st0{fill:none;stroke:#76777E;}
	.st1{fill:url(#SVGID_1_);}
</style>
<image style="overflow:visible;" width="3456" height="4608" xlink:href="C:\Users\quent\Downloads\IMG_20230221_160433.jpg"  transform="matrix(7.794791e-02 0 0 7.794791e-02 -738.4398 -70.251)">
</image>
<path class="st0" d="M112.3,35.5c0,0-2.6-5.6-11.2-6.6c-8.7-1-11.7,0.5-13.1,1.7c-1.4,1.2-6,0.2-6,0.2s-1.2,1.7,0,4.8
	c1.2,3.1-3.4,6.8-7.3,5.8c-3.9-1-3.4,3.7-3.4,3.7L65,46.8c0,0-7,19.2-8.9,21.4H38.4c0,0-6.1-3.2-9.2-1.4c-3.1,1.9-7.5,5.4-7,9.7
	c0.5,4.3,3.1,13.1,8.8,19.7c4.8,4.6,6.5,5.1,6.5,5.1s2.2,9.5-1.9,15.7c0,0-2,1.5-2.4-3.9c-0.3-5.4-2.4-9.7-5.8-15.8
	c-3.4-6.1-9.9-21.1-11.1-32c-1.2-10.9-2.2-29.3,6.3-36.7S38.1,19,38.1,19s2-2,4-2.5c0,0-6.2-1-2.1-4.3c2.9-2.4,8.2-6.2,10.7-5.8
	c2.3,0.4,4.6,0.3,5.6-0.1c1.3-0.5,3.3-1,5.7,0.7c2.3,1.6,1.8,1.2,3.2,0.6c1.3-0.6,2.6-0.5,5.1,0c0,0,5.7-1.7,8.5-0.6
	c2.8,1.1,13.7,6.2,15,7.4s5.2,0.7,6.9,0.9c1.7,0.1,6.7,0.9,7.7,2.2s1.6,2.8,3.9,2.8s6.5,0.1,8.2,3c0.7,1.2,0.8,3-1,6.1
	C117.7,32.5,112.3,35.5,112.3,35.5z"/>
<path class="st0" d="M112.3,35.5c0,0,3.7,6.6,4.3,10.6s2.4,6.4,2.6,7.6c0.2,1.3,1.5,8,1.5,8s1.5,4.6,1.4,6.2c-0.1,1.5-2.1,5-3.5,6.6
	c0,0,1.9,3,3.5,4.3c1.6,1.3,4.9,5.3,4.9,8.2s-0.6,3.7-3.7,5.5c-1,0.6-2.6,1.3-2.6,1.3s1.1,3.4-0.1,6.1"/>
<path class="st0" d="M35.7,117c0,0,1.7,24.6-4.7,30.7"/>
<path class="st0" d="M35.7,130.4c0,0-7.7,1.1-16.5,15.9C10.5,161-13.3,161.4-31,175.9"/>
<path class="st0" d="M33.5,141.1c0,0-5.3,5.2-1.1,14.4s18.3,27,43.5,28.2s24.4-11,24.9-28.7"/>
<path class="st0" d="M125.6,149.2c0,0,6.8,8.4,16.5,9.2c9.7,0.8,27.2,17.1,29,29.5"/>
<path class="st0" d="M112.8,158.6c0,0,2.9,11.9,10.8,16.3"/>
<linearGradient id="SVGID_1_" gradientUnits="userSpaceOnUse" x1="48.8655" y1="115.9414" x2="126.5595" y2="115.9414">
	<stop  offset="0" style="stop-color:#4663FF"/>
	<stop  offset="1" style="stop-color:#17A8D3"/>
</linearGradient>
<path class="st1" d="M125.8,131c-0.7-5.4-3.3-14.2-4.5-17.5c-1.2-3.3,0-6.4-0.6-10.6c-0.6-4.2-3.8-7.3-3.8-7.3
	c-2.7,0.1-2.7,1.5-3.6,1.3c-1-0.2-5.6-1.8-7.4-1.6c-1.7,0.2-3.2,1.9-8.5,2.3c-5.4,0.4-6.2,1.3-7.3,2.5c-1.1,1.2,2.5,17.2-0.5,17.6
	c-8.9,1.1-16.7-5.3-20.6-7.2c-5.5-2.2-6-14.4-9.6-17.4c-3.6-3-3.8-12.8-3.8-12.8s-6.1-0.8-6.6,0c-0.5,0.8,1.3,9,2.6,14.7
	s1.9,7.8,0.2,17.2s2.9,14.6,4.3,16.9c1.8,2.9,20.6,10.4,22.4,12.1s20.9,8.7,30.8,10.2c5.9,0.9,10.8,1.5,14.7-2
	C127.2,146.3,126.9,140,125.8,131z M118.2,110.2c-0.3,2.3-2,2.4-7.4,1.3s-16.1-2.9-16.4-6.4c0-0.5-0.6-1.1,0.6-1.6
	c0,0,6.6-3,10.5-2.3c3.9,0.6,6.6,1.1,8.5,1.1s4,0.2,3.9,1.7c-0.1,1.5-0.9,2.3-0.9,2.3S118.5,107.9,118.2,110.2z"/>
<path class="st0" d="M56.1,68.2l36.1-1.3c0,0,3-7.5,10.8-7.2c6.9,0.3,7.8,8,7.8,8s4.4-0.6,5.5-0.4s1.8,1.4,1.8,1.4s1.3-5.8,4.9-6.3
	c3.6-0.5,5.8,1.8,6.6,4.4c0.8,2.7,0.7,3.5,0.7,3.5h1.3v1.1h-1.3c0,0,0.2,7.6-3.6,12.9"/>
<path class="st0" d="M118.5,74.6l-1.5-1.6l0.6-2.8c0,0,0.2-1.9-3.9-1.4c-1.7,0.2-2.8,0.4-2.8,0.4s1.1,8.1-3.3,13.5s-8.3,4.7-8.3,4.7
	s-3.7-0.5-5.2-2.6c-1.7-2.4-2.5-3.5-3.3-9.2c-0.4-2.7,0.9-6.9,0.9-6.9l-43.2,0.6c0,0-2.9,1-7.7,0.5l-2.4-1.7"/>
</svg>
